:SAMPLES-PER-SECOND 24
:FULLY-SPECIFIED
:DEGREES
471
root  0.342576 40.3254 16.9574 6.39392 54.6815 -1.40314
RightUpLeg  -16.5613 3.47949 -12.429
RightLeg  24.0785 -6.14098 -3.21133
RightFoot  1.71783 -1.23914 10.8985
RightToes  -2.08645e-008 3.77894e-005 6.81332e-007
Spine  -4.49335 -2.86084 -4.11622
Spine1  5.64094 -3.9571 5.59164
HEad  -34.3893 -19.2232 12.9453
LeftShoulder1  6.77057 -12.8457 -35.3822
LeftArm  9.65079 33.1471 -20.9124
LeftForeArm  164.146 -63.1609 -159.941
LeftHand  -0.163756 -2.91708 2.51641
RightShoulder  3.65506 6.25426 31.5683
RightArm  11.2485 -23.029 30.3999
RightForeArm  137.292 77.4154 129.794
RightHand  0.24629 9.46047 1.51722
LeftUpLeg  -4.26313 -3.64961 8.91872
LeftLeg  18.0954 5.45175 2.38074
LeftFoot  -4.10072 1.08861 -16.7191
LeftToes  1.24767e-006 1.47042e-008 1.32732e-009
472
root  0.249051 38.9397 16.4867 5.99829 54.4961 -0.656433
RightUpLeg  -17.0202 3.03799 -13.3022
RightLeg  27.7286 -6.82685 -4.10161
RightFoot  -6.85281 -0.494599 11.1342
RightToes  -2.08645e-008 3.77894e-005 6.81332e-007
Spine  -1.99702 -2.59386 -4.81552
Spine1  5.35018 -3.85465 5.94739
HEad  -35.423 -19.6116 12.361
LeftShoulder1  6.99519 -12.9337 -36.4989
LeftArm  9.28256 26.2254 -17.7841
LeftForeArm  162.355 -66.2942 -156.832
LeftHand  -0.317659 -3.14925 4.57121
RightShoulder  3.64798 6.21669 31.6414
RightArm  9.52677 -18.6642 30.9932
RightForeArm  129.518 78.7886 120.679
RightHand  -0.00495929 9.61351 -0.445049
LeftUpLeg  -6.27569 -3.44866 8.08036
LeftLeg  25.8775 4.69453 2.83649
LeftFoot  -15.1366 -0.474563 -17.2684
LeftToes  1.24767e-006 1.47042e-008 1.32732e-009
473
root  0.329275 38.1842 15.9737 5.52808 54.3501 -0.842163
RightUpLeg  -17.5272 2.55776 -14.0177
RightLeg  29.2097 -6.6696 -4.24753
RightFoot  -10.6179 -0.12486 9.57141
RightToes  -2.08645e-008 3.77894e-005 6.81332e-007
Spine  -2.30227 -2.32079 -3.86503
Spine1  7.62118 -3.59012 5.09991
HEad  -37.7457 -20.0896 12.738
LeftShoulder1  7.38647 -13.2137 -38.0726
LeftArm  5.92306 20.2619 -18.3395
LeftForeArm  164.924 -70.5311 -151.904
LeftHand  -0.416576 -2.52805 6.32338
RightShoulder  3.67926 6.18082 32.1069
RightArm  5.86491 -16.7741 32.4991
RightForeArm  125.89 79.6073 113.789
RightHand  -0.0172812 9.9195 -0.5389
LeftUpLeg  -7.47239 -5.00966 6.7487
LeftLeg  29.5395 7.45344 4.89866
LeftFoot  -20.6556 -1.14142 -15.433
LeftToes  1.24767e-006 1.47042e-008 1.32732e-009
474
root  0.645388 38.4293 15.5317 5.15613 53.1565 -1.69781
RightUpLeg  -17.5371 3.36132 -14.448
RightLeg  27.3194 -6.04556 -3.61235
RightFoot  -8.06165 -0.37361 11.061
RightToes  -2.08645e-008 3.77894e-005 6.81332e-007
Spine  -3.99388 -2.19096 -2.35297
Spine1  9.65695 -3.38457 4.11781
HEad  -38.9137 -19.5163 13.369
LeftShoulder1  7.63508 -13.4114 -38.9876
LeftArm  -0.131477 21.6931 -23.9555
LeftForeArm  169.705 -72.4117 -149.63
LeftHand  -0.374855 -2.44629 5.76358
RightShoulder  3.80776 6.31292 32.9057
RightArm  3.42842 -18.1687 34.1845
RightForeArm  125.489 79.8415 111.728
RightHand  0.0225593 9.79435 -0.232563
LeftUpLeg  -6.42745 -6.89144 5.5009
LeftLeg  27.3864 11.3427 6.61976
LeftFoot  -19.332 -0.902947 -14.4564
LeftToes  1.24767e-006 1.47042e-008 1.32732e-009
475
root  1.04435 39.526 15.2543 5.26453 51.5275 -2.56946
RightUpLeg  -17.0554 4.50104 -14.4075
RightLeg  22.3676 -6.62102 -3.19921
RightFoot  0.695108 -1.35024 12.8034
RightToes  -2.08645e-008 3.77894e-005 6.81332e-007
Spine  -5.24109 -2.25024 -2.57505
Spine1  9.24053 -3.72858 5.62748
HEad  -36.9802 -18.4204 13.0622
LeftShoulder1  7.53883 -13.2646 -38.817
LeftArm  -4.52344 28.6592 -31.9405
LeftForeArm  169.722 -71.0109 -151.892
LeftHand  -0.374521 -1.93819 6.12109
RightShoulder  3.91207 6.44788 33.427
RightArm  4.2222 -21.9392 35.0672
RightForeArm  128.413 79.4547 115.894
RightHand  -0.0438389 9.39196 -0.743025
LeftUpLeg  -4.50914 -4.40324 5.66689
LeftLeg  21.4643 10.5888 4.88539
LeftFoot  -13.0298 -0.150888 -15.4285
LeftToes  1.24767e-006 1.47042e-008 1.32732e-009
